<?xml version="1.0" encoding="UTF-8"?>
<!DOCTYPE svg PUBLIC "-//W3C//DTD SVG 1.1//EN" "http://www.w3.org/Graphics/SVG/1.1/DTD/svg11.dtd">
<svg xmlns="http://www.w3.org/2000/svg" version="1.1" width="1046px" height="340px" style="shape-rendering:geometricPrecision; text-rendering:geometricPrecision; image-rendering:optimizeQuality; fill-rule:evenodd; clip-rule:evenodd" xmlns:xlink="http://www.w3.org/1999/xlink">
<g><path style="opacity:0.954" fill="#fefffe" d="M 348.5,66.5 C 370.29,64.4522 379.456,74.1189 376,95.5C 372.519,104.582 365.852,108.916 356,108.5C 337.92,106.379 331.254,96.3791 336,78.5C 338.769,72.8947 342.936,68.8947 348.5,66.5 Z"/></g>
<g><path style="opacity:0.988" fill="#fefefe" d="M 80.5,270.5 C 80.5797,259.754 75.2463,255.254 64.5,257C 52.5768,266.838 39.2435,269.171 24.5,264C 19.7856,261.949 15.6189,259.115 12,255.5C 8.28447,250.062 5.11781,244.395 2.5,238.5C 2.5,233.167 2.5,227.833 2.5,222.5C 4.51066,216.816 7.344,211.483 11,206.5C 16.3991,201.882 22.2324,197.882 28.5,194.5C 35.6808,183.851 33.0141,176.851 20.5,173.5C 13.9663,175.103 7.96633,177.77 2.5,181.5C 2.5,145.5 2.5,109.5 2.5,73.5C 75.5,73.5 148.5,73.5 221.5,73.5C 221.5,128.167 221.5,182.833 221.5,237.5C 253.167,237.5 284.833,237.5 316.5,237.5C 316.5,248.5 316.5,259.5 316.5,270.5C 237.833,270.5 159.167,270.5 80.5,270.5 Z"/></g>
<g><path style="opacity:0.967" fill="#fefffe" d="M 564.5,73.5 C 576.167,73.5 587.833,73.5 599.5,73.5C 599.333,109.502 599.5,145.502 600,181.5C 616.798,162.367 633.964,143.534 651.5,125C 665.5,124.333 679.5,124.333 693.5,125C 678.667,140.5 663.833,156 649,171.5C 646.819,174.344 644.653,177.178 642.5,180C 660.952,209.733 679.286,239.567 697.5,269.5C 683.178,270.666 668.845,270.833 654.5,270C 641.792,248.75 628.959,227.583 616,206.5C 611.033,212.469 605.699,218.135 600,223.5C 599.5,239.163 599.333,254.83 599.5,270.5C 587.833,270.5 576.167,270.5 564.5,270.5C 564.5,204.833 564.5,139.167 564.5,73.5 Z"/></g>
<g><path style="opacity:0.972" fill="#fefffe" d="M 711.5,73.5 C 723.5,73.5 735.5,73.5 747.5,73.5C 747.026,118.872 747.526,164.206 749,209.5C 754.38,229.709 767.547,240.043 788.5,240.5C 809.899,239.93 823.066,229.263 828,208.5C 829.469,163.534 829.969,118.534 829.5,73.5C 841.5,73.5 853.5,73.5 865.5,73.5C 865.667,118.501 865.5,163.501 865,208.5C 858.052,251.757 832.552,273.757 788.5,274.5C 768.742,274.652 751.076,268.818 735.5,257C 721.951,244.068 714.118,228.235 712,209.5C 711.5,164.168 711.333,118.835 711.5,73.5 Z"/></g>
<g><path style="opacity:0.968" fill="#fefffe" d="M 478.5,120.5 C 510.397,118.898 528.563,133.898 533,165.5C 533.5,200.498 533.667,235.498 533.5,270.5C 521.833,270.5 510.167,270.5 498.5,270.5C 498.667,239.165 498.5,207.832 498,176.5C 492.356,156.426 479.523,149.592 459.5,156C 448.564,161.349 442.731,170.182 442,182.5C 441.5,211.831 441.333,241.165 441.5,270.5C 429.833,270.5 418.167,270.5 406.5,270.5C 406.5,221.833 406.5,173.167 406.5,124.5C 418.167,124.5 429.833,124.5 441.5,124.5C 441.334,130.842 441.5,137.175 442,143.5C 451.148,130.853 463.315,123.186 478.5,120.5 Z"/></g>
<g><path style="opacity:0.974" fill="#fefffe" d="M 970.5,120.5 C 1002.44,119.951 1022.94,134.951 1032,165.5C 1035.85,183.022 1036.52,200.688 1034,218.5C 1030.53,241.987 1018.36,259.154 997.5,270C 972.376,279.014 951.543,273.18 935,252.5C 934.5,276.831 934.333,301.164 934.5,325.5C 922.833,325.5 911.167,325.5 899.5,325.5C 899.5,258.5 899.5,191.5 899.5,124.5C 911.167,124.5 922.833,124.5 934.5,124.5C 934.334,130.509 934.501,136.509 935,142.5C 944,130.425 955.834,123.092 970.5,120.5 Z M 963.5,153.5 C 981.442,153.607 992.942,162.274 998,179.5C 1003.22,197.827 1000.56,214.827 990,230.5C 974.26,245.089 958.593,245.089 943,230.5C 933.56,215.357 930.894,199.024 935,181.5C 938.5,165.831 948,156.498 963.5,153.5 Z"/></g>
<g><path style="opacity:1" fill="#e0e0e0" d="M 100.5,128.5 C 133.67,126.991 156.17,141.658 168,172.5C 174.524,206.287 162.357,230.453 131.5,245C 119.677,245.837 114.844,240.337 117,228.5C 120.46,224.006 124.96,220.84 130.5,219C 146.809,204.689 149.976,187.856 140,168.5C 129.324,154.94 115.49,150.106 98.5,154C 92.4243,157.705 86.091,160.871 79.5,163.5C 70.4082,161.912 66.5749,156.579 68,147.5C 68.8834,144.898 70.3834,142.731 72.5,141C 81.0612,134.882 90.3946,130.715 100.5,128.5 Z"/></g>
<g><path style="opacity:0.97" fill="#fefffe" d="M 338.5,129.5 C 350.167,129.5 361.833,129.5 373.5,129.5C 373.5,176.5 373.5,223.5 373.5,270.5C 361.833,270.5 350.167,270.5 338.5,270.5C 338.5,223.5 338.5,176.5 338.5,129.5 Z"/></g>
<g><path style="opacity:0.959" fill="#e0e0e0" d="M 2.5,222.5 C 2.5,208.833 2.5,195.167 2.5,181.5C 7.96633,177.77 13.9663,175.103 20.5,173.5C 33.0141,176.851 35.6808,183.851 28.5,194.5C 22.2324,197.882 16.3991,201.882 11,206.5C 7.344,211.483 4.51066,216.816 2.5,222.5 Z"/></g>
<g><path style="opacity:1" fill="#e0e0e0" d="M 104.5,177.5 C 116.326,175.833 121.826,180.833 121,192.5C 120.117,195.102 118.617,197.269 116.5,199C 92.5,213 68.5,227 44.5,241C 34.2393,244.418 28.2393,240.751 26.5,230C 27.2169,225.9 29.2169,222.567 32.5,220C 56.7279,206.059 80.7279,191.892 104.5,177.5 Z"/></g>
<g><path style="opacity:0.964" fill="#e0e0e0" d="M 2.5,238.5 C 5.11781,244.395 8.28447,250.062 12,255.5C 15.6189,259.115 19.7856,261.949 24.5,264C 39.2435,269.171 52.5768,266.838 64.5,257C 75.2463,255.254 80.5797,259.754 80.5,270.5C 54.5,270.5 28.5,270.5 2.5,270.5C 2.5,259.833 2.5,249.167 2.5,238.5 Z"/></g>
</svg>
