<svg width="200" height="60" viewBox="0 0 200 60" fill="none" xmlns="http://www.w3.org/2000/svg">
  <!-- 背景圆角矩形 -->
  <rect x="0" y="10" width="50" height="40" rx="8" fill="#1a1a1a"/>
  
  <!-- 链接图标 -->
  <path d="M12 25c-2.5 0-4.5 2-4.5 4.5s2 4.5 4.5 4.5h6c1.1 0 2-.9 2-2s-.9-2-2-2h-6c-.3 0-.5-.2-.5-.5s.2-.5.5-.5h10c2.5 0 4.5-2 4.5-4.5s-2-4.5-4.5-4.5h-6c-1.1 0-2 .9-2 2s.9 2 2 2h6c.3 0 .5.2.5.5s-.2.5-.5.5H12z" fill="white"/>
  <path d="M28 35c2.5 0 4.5-2 4.5-4.5s-2-4.5-4.5-4.5h-6c-1.1 0-2 .9-2 2s.9 2 2 2h6c.3 0 .5.2.5.5s-.2.5-.5.5H18c-2.5 0-4.5 2-4.5 4.5s2 4.5 4.5 4.5h6c1.1 0 2-.9 2-2s-.9-2-2-2h-6c-.3 0-.5-.2-.5-.5s.2-.5.5-.5h10z" fill="#666"/>
  
  <!-- LinkUp 文字 -->
  <text x="60" y="25" font-family="Arial, sans-serif" font-size="18" font-weight="bold" fill="#1a1a1a">LinkUp</text>
</svg>