<?xml version="1.0" encoding="UTF-8"?>
<!DOCTYPE svg PUBLIC "-//W3C//DTD SVG 1.1//EN" "http://www.w3.org/Graphics/SVG/1.1/DTD/svg11.dtd">
<svg xmlns="http://www.w3.org/2000/svg" version="1.1" width="332px" height="108px" style="shape-rendering:geometricPrecision; text-rendering:geometricPrecision; image-rendering:optimizeQuality; fill-rule:evenodd; clip-rule:evenodd" xmlns:xlink="http://www.w3.org/1999/xlink">
<g><path style="opacity:0.813" fill="#000000" d="M 107.5,20.5 C 118.192,19.0943 121.525,23.261 117.5,33C 110.864,36.3304 106.531,34.4971 104.5,27.5C 104.93,24.862 105.93,22.5287 107.5,20.5 Z"/></g>
<g><path style="opacity:0.949" fill="#010101" d="M -0.5,22.5 C 22.8333,22.5 46.1667,22.5 69.5,22.5C 69.5,39.8333 69.5,57.1667 69.5,74.5C 79.8333,74.5 90.1667,74.5 100.5,74.5C 100.793,78.4367 100.46,82.27 99.5,86C 74.5022,86.5 49.5022,86.6666 24.5,86.5C 25.17,83.4096 24.0033,81.743 21,81.5C 12.1182,86.7846 4.95156,85.118 -0.5,76.5C -0.5,74.1667 -0.5,71.8333 -0.5,69.5C 2.40635,65.395 5.73968,61.7283 9.5,58.5C 9.22469,56.3911 8.05803,55.0578 6,54.5C 3.74726,55.3773 1.58059,56.3773 -0.5,57.5C -0.5,45.8333 -0.5,34.1667 -0.5,22.5 Z"/></g>
<g><path style="opacity:0.866" fill="#000000" d="M 177.5,22.5 C 181.5,22.5 185.5,22.5 189.5,22.5C 189.333,33.505 189.5,44.505 190,55.5C 195.533,50.3017 200.7,44.8017 205.5,39C 210.202,38.1717 214.869,38.3384 219.5,39.5C 214.283,45.4281 208.95,51.2614 203.5,57C 209.5,66.3333 215.5,75.6667 221.5,85C 219.03,86.114 216.364,86.614 213.5,86.5C 211.167,86.1667 208.833,85.8333 206.5,85.5C 202.5,79.1667 198.5,72.8333 194.5,66.5C 193.01,68.1256 191.51,69.7923 190,71.5C 189.501,76.4889 189.334,81.4889 189.5,86.5C 185.563,86.7935 181.73,86.4601 178,85.5C 177.5,64.5026 177.333,43.5026 177.5,22.5 Z"/></g>
<g><path style="opacity:0.904" fill="#000000" d="M 224.5,22.5 C 228.5,22.5 232.5,22.5 236.5,22.5C 236.333,36.504 236.5,50.504 237,64.5C 240.572,74.918 247.405,77.7513 257.5,73C 260.142,70.4238 261.642,67.2571 262,63.5C 262.5,49.8374 262.667,36.1707 262.5,22.5C 266.5,22.5 270.5,22.5 274.5,22.5C 274.941,39.2233 274.441,55.89 273,72.5C 268.456,82.5275 260.622,87.5275 249.5,87.5C 238.363,87.5073 230.53,82.5073 226,72.5C 224.559,55.89 224.059,39.2233 224.5,22.5 Z"/></g>
<g><path style="opacity:0.87" fill="#000000" d="M 148.5,37.5 C 157.59,36.0164 164.09,39.3498 168,47.5C 168.5,60.4957 168.667,73.4957 168.5,86.5C 164.563,86.7935 160.73,86.4601 157,85.5C 156.667,74.8333 156.333,64.1667 156,53.5C 151.147,46.9798 146.147,46.9798 141,53.5C 139.594,64.4363 139.094,75.4363 139.5,86.5C 135.5,86.5 131.5,86.5 127.5,86.5C 127.5,70.5 127.5,54.5 127.5,38.5C 131.5,38.5 135.5,38.5 139.5,38.5C 139.34,40.1992 139.506,41.8659 140,43.5C 142.322,40.6047 145.155,38.6047 148.5,37.5 Z"/></g>
<g><path style="opacity:0.894" fill="#000000" d="M 305.5,37.5 C 318.039,36.5427 325.539,42.2093 328,54.5C 329.526,63.3208 328.192,71.6542 324,79.5C 318.306,86.4786 311.139,88.6453 302.5,86C 300.376,84.8783 298.543,83.3783 297,81.5C 296.5,88.8258 296.334,96.1591 296.5,103.5C 292.5,103.5 288.5,103.5 284.5,103.5C 284.5,81.8333 284.5,60.1667 284.5,38.5C 288.5,38.5 292.5,38.5 296.5,38.5C 296.343,39.8734 296.51,41.2068 297,42.5C 299.682,40.415 302.516,38.7483 305.5,37.5 Z M 305.5,48.5 C 312.816,50.1629 316.483,54.8296 316.5,62.5C 315.369,74.6416 309.535,77.975 299,72.5C 296.114,66.3107 295.781,59.9774 298,53.5C 299.913,50.7197 302.413,49.053 305.5,48.5 Z"/></g>
<g><path style="opacity:0.872" fill="#000000" d="M 106.5,40.5 C 110.5,40.5 114.5,40.5 118.5,40.5C 118.667,55.5037 118.5,70.5037 118,85.5C 114.27,86.4601 110.437,86.7935 106.5,86.5C 106.5,71.1667 106.5,55.8333 106.5,40.5 Z"/></g>
<g><path style="opacity:1" fill="#848484" d="M 28.5,40.5 C 44.5129,39.3542 52.6795,46.6876 53,62.5C 51.2147,71.2953 46.0481,76.1287 37.5,77C 36.4258,76.2613 35.7591,75.2613 35.5,74C 37.9376,70.8459 40.771,68.0126 44,65.5C 46.9757,53.1422 42.1423,47.6422 29.5,49C 26.7254,51.9158 23.8921,52.0824 21,49.5C 20.3333,48.1667 20.3333,46.8333 21,45.5C 23.4795,43.6859 25.9795,42.0192 28.5,40.5 Z"/></g>
<g><path style="opacity:0.909" fill="#828282" d="M -0.5,69.5 C -0.5,65.5 -0.5,61.5 -0.5,57.5C 1.58059,56.3773 3.74726,55.3773 6,54.5C 8.05803,55.0578 9.22469,56.3911 9.5,58.5C 5.73968,61.7283 2.40635,65.395 -0.5,69.5 Z"/></g>
<g><path style="opacity:1" fill="#858585" d="M 32.5,55.5 C 37.6677,56.3385 38.6677,58.8385 35.5,63C 28.1667,67.3333 20.8333,71.6667 13.5,76C 8.51626,76.6863 6.8496,74.6863 8.5,70C 16.7297,65.3923 24.7297,60.5589 32.5,55.5 Z"/></g>
<g><path style="opacity:0.828" fill="#848484" d="M -0.5,76.5 C 4.95156,85.118 12.1182,86.7846 21,81.5C 24.0033,81.743 25.17,83.4096 24.5,86.5C 16.1667,86.5 7.83333,86.5 -0.5,86.5C -0.5,83.1667 -0.5,79.8333 -0.5,76.5 Z"/></g>
</svg>
